<?xml version="1.0" encoding="UTF-8" standalone="no"?>
<svg
   version="1.0"
   width="4096.000000pt"
   height="4096.000000pt"
   viewBox="0 0 4096.000000 4096.000000"
   preserveAspectRatio="xMidYMid meet"
   id="svg19"
   sodipodi:docname="logo 2.svg"
   inkscape:version="1.3.2 (091e20e, 2023-11-25)"
   xmlns:inkscape="http://www.inkscape.org/namespaces/inkscape"
   xmlns:sodipodi="http://sodipodi.sourceforge.net/DTD/sodipodi-0.dtd"
   xmlns="http://www.w3.org/2000/svg"
   xmlns:svg="http://www.w3.org/2000/svg">
  <defs
     id="defs19" />
  <sodipodi:namedview
     id="namedview19"
     pagecolor="#ffffff"
     bordercolor="#000000"
     borderopacity="0.25"
     inkscape:showpageshadow="2"
     inkscape:pageopacity="0.0"
     inkscape:pagecheckerboard="0"
     inkscape:deskcolor="#d1d1d1"
     inkscape:document-units="pt"
     inkscape:zoom="0.043212891"
     inkscape:cx="2730.6667"
     inkscape:cy="2719.096"
     inkscape:window-width="1472"
     inkscape:window-height="920"
     inkscape:window-x="0"
     inkscape:window-y="36"
     inkscape:window-maximized="0"
     inkscape:current-layer="svg19" />
  <g
     transform="translate(0.000000,4096.000000) scale(0.100000,-0.100000)"
     fill="#000000"
     stroke="none"
     id="g19"
     style="fill:#fefff5;fill-opacity:1">
    <path
       d="M8700 33554 c-204 -30 -359 -125 -465 -284 -25 -38 -63 -116 -85 -172 -29 -78 -1355 -3929 -1660 -4823 -27 -77 -84 -243 -128 -370 -44 -126 -578 -1679 -1187 -3450 -609 -1771 -1142 -3321 -1185 -3445 -98 -285 -2274 -6612 -2345 -6820 -30 -85 -88 -254 -130 -375 -218 -629 -326 -950 -341 -1011 -19 -83 -21 -230 -4 -305 47 -207 214 -390 415 -456 102 -33 266 -38 359 -9 171 51 325 177 398 326 21 42 130 346 244 675 113 330 243 708 289 840 45 132 579 1682 1184 3445 606 1763 1117 3248 1136 3300 19 52 43 122 53 155 11 33 56 164 100 290 44 127 578 1679 1187 3450 609 1771 1143 3324 1187 3450 44 127 105 305 136 396 383 1121 1009 2929 1014 2929 4 0 1270 -2526 2814 -5612 1543 -3087 2826 -5640 2849 -5674 92 -128 231 -225 390 -271 74 -21 -483 -19 9095 -33 4012 -6 9172 -13 11465 -17 3943 -6 4174 -5 4250 11 229 50 413 211 483 423 21 66 25 96 25 193 0 97 -4 127 -26 195 -69 210 -259 376 -477 419 -86 17 -1506 22 -8265 31 -4475 6 -8718 13 -12973 21 l-3053 6 -3054 6107 c-1679 3358 -3071 6133 -3092 6166 -109 166 -266 268 -457 294 -77 11 -98 12 -146 5z"
       id="path1"
       style="fill:#fefff5;fill-opacity:1" />
    <path
       d="M33935 26945 c-126 -128 -295 -245 -355 -245 -115 0 -210 37 -425 163 -161 95 -250 133 -349 147 -187 28 -340 -38 -545 -235 -98 -94 -183 -198 -268 -325 -56 -85 -108 -178 -102 -184 2 -2 49 -29 103 -59 l100 -56 58 64 c68 74 181 168 287 237 82 54 105 57 209 33 70 -17 112 -37 332 -159 85 -47 178 -95 206 -105 83 -32 205 -44 287 -30 194 32 441 238 630 524 57 86 117 196 117 212 0 8 -49 40 -150 99 l-35 20 -100 -101z"
       id="path2"
       style="fill:#fefff5;fill-opacity:1" />
    <path
       d="M16625 25849 c-400 -27 -761 -170 -1060 -421 -335 -281 -573 -760 -635 -1276 -24 -209 -9 -555 35 -764 140 -676 564 -1174 1173 -1377 232 -78 546 -114 806 -92 366 30 623 121 939 331 160 106 391 296 383 316 -3 7 -51 74 -107 147 l-103 134 -120 -92 c-304 -233 -512 -339 -742 -380 -107 -19 -343 -22 -434 -6 -475 86 -828 484 -965 1086 -44 197 -58 361 -52 640 6 311 33 486 108 721 88 275 233 477 444 619 l87 58 137 -7 c247 -11 475 -49 656 -107 104 -34 270 -114 335 -162 l45 -34 54 -314 c29 -173 55 -324 58 -336 5 -23 7 -23 173 -23 l167 0 47 243 c26 133 74 364 107 512 32 149 59 274 59 278 0 15 -245 113 -415 165 -266 82 -511 124 -826 142 -101 5 -195 9 -209 9 -14 -1 -79 -6 -145 -10z"
       id="path3"
       style="fill:#fefff5;fill-opacity:1" />
    <path
       d="M20487 25813 c-3 -5 -37 -97 -76 -205 -166 -466 -447 -1173 -711 -1788 -245 -570 -378 -862 -560 -1225 l-155 -310 -210 -59 c-115 -33 -212 -61 -215 -63 -2 -2 12 -52 31 -111 l35 -107 200 5 c250 6 832 3 984 -5 l115 -6 37 111 c25 77 33 112 25 115 -7 2 -102 30 -212 61 -110 31 -202 58 -204 60 -4 4 70 272 114 410 41 132 13 118 275 135 178 12 1064 7 1105 -6 15 -5 44 -68 123 -263 56 -142 102 -262 102 -268 0 -12 -22 -19 -292 -90 -82 -21 -148 -43 -148 -49 0 -5 16 -56 36 -113 l37 -103 171 8 c224 10 1302 10 1432 0 l102 -8 36 107 c20 59 33 110 30 113 -3 3 -105 33 -226 66 l-221 60 -30 70 c-16 39 -157 365 -314 725 -655 1505 -761 1760 -1028 2483 l-93 252 -145 3 c-80 1 -148 -1 -150 -5z m-37 -1448 c219 -530 463 -1122 467 -1136 4 -14 -9 -17 -85 -23 -204 -16 -949 -2 -970 18 -1 2 74 214 168 472 94 258 206 563 247 677 42 114 79 204 83 200 4 -4 44 -98 90 -208z"
       id="path4"
       style="fill:#fefff5;fill-opacity:1" />
    <path
       d="M28535 25808 c-326 -946 -980 -2507 -1381 -3298 l-114 -226 -211 -59 c-115 -32 -212 -62 -214 -65 -3 -4 12 -55 31 -114 l36 -108 112 8 c139 10 922 10 1072 0 l112 -8 36 108 c20 60 33 111 28 115 -4 4 -99 33 -212 64 -113 31 -206 58 -207 59 -4 4 46 186 99 358 59 195 24 171 288 189 182 12 1064 7 1107 -6 18 -6 42 -56 128 -273 58 -146 104 -266 103 -268 -2 -1 -100 -27 -218 -59 -118 -31 -219 -60 -223 -64 -4 -5 9 -55 30 -112 l38 -104 270 5 c149 3 452 5 675 5 223 0 486 -2 584 -5 l179 -5 34 100 c18 55 31 105 29 111 -2 5 -103 37 -224 69 l-221 59 -132 305 c-72 169 -254 587 -404 931 -449 1029 -592 1381 -867 2125 l-63 170 -148 3 c-113 2 -148 0 -152 -10z m83 -1723 c110 -264 235 -568 280 -676 l80 -197 -98 -7 c-154 -10 -651 -8 -815 5 -82 7 -151 13 -152 14 -1 0 56 159 126 351 70 193 181 497 247 677 65 180 122 324 126 320 4 -4 97 -223 206 -487z"
       id="path5"
       style="fill:#fefff5;fill-opacity:1" />
    <path
       d="M37290 25643 c-327 -925 -1033 -2588 -1371 -3228 l-69 -131 -207 -58 c-115 -33 -211 -62 -216 -66 -4 -3 10 -55 30 -114 l38 -107 110 8 c138 9 922 9 1071 -1 l111 -8 38 107 c22 62 34 110 29 114 -5 5 -100 35 -211 66 -169 48 -203 61 -203 76 0 16 73 274 127 451 21 67 4 61 263 79 201 13 1061 7 1099 -8 19 -8 42 -55 127 -268 57 -143 104 -262 104 -266 0 -3 -98 -32 -217 -64 -120 -32 -221 -61 -225 -64 -4 -3 10 -54 31 -111 l39 -105 273 5 c151 3 454 5 674 5 220 0 480 -2 579 -5 l178 -5 39 108 c28 77 35 109 26 112 -6 2 -106 29 -222 60 -115 31 -215 62 -221 68 -6 7 -57 120 -113 252 -57 132 -233 537 -391 900 -489 1122 -681 1593 -940 2313 l-23 62 -147 0 -147 0 -63 -177z m50 -1338 c62 -148 186 -450 277 -670 91 -220 167 -405 169 -411 8 -17 -152 -25 -482 -25 -252 0 -561 14 -573 27 -4 4 78 235 317 889 180 491 172 469 176 464 2 -2 54 -125 116 -274z"
       id="path6"
       style="fill:#fefff5;fill-opacity:1" />
    <path
       d="M22946 25773 c-34 -112 -53 -205 -43 -208 7 -2 120 -34 252 -70 132 -37 243 -69 246 -73 16 -16 31 -657 31 -1282 -1 -688 -19 -1840 -31 -1852 -3 -3 -103 -29 -221 -58 -118 -28 -231 -55 -251 -61 l-37 -9 38 -108 38 -107 173 5 c202 6 777 6 1474 -1 433 -3 503 -2 601 14 519 82 870 320 1018 690 39 98 56 180 63 307 10 200 -19 355 -99 520 -46 96 -60 114 -157 210 -159 157 -323 244 -580 308 -61 15 -111 29 -111 33 0 3 21 15 48 28 76 37 202 124 274 190 260 239 350 583 242 926 -100 314 -332 512 -694 591 -78 18 -124 19 -580 14 -755 -6 -1202 -6 -1457 3 -217 7 -232 6 -237 -10z m1750 -334 c164 -30 289 -147 364 -340 114 -296 43 -671 -164 -859 -81 -74 -81 -74 -282 -78 -101 -3 -217 -1 -259 3 l-75 7 1 381 c1 210 4 487 8 616 l6 234 40 14 c92 32 254 42 361 22z m51 -1634 c221 -36 413 -155 535 -333 156 -226 191 -527 91 -774 -39 -99 -126 -222 -196 -278 -113 -92 -306 -170 -418 -170 -118 0 -423 51 -467 79 -10 6 -13 177 -15 742 l-2 734 75 6 c148 11 307 9 397 -6z"
       id="path7"
       style="fill:#fefff5;fill-opacity:1" />
    <path
       d="M30996 25695 c-15 -50 -28 -99 -29 -110 -2 -16 36 -28 292 -95 272 -71 295 -79 302 -101 24 -80 37 -1577 19 -2129 -13 -415 -41 -964 -49 -972 -3 -3 -132 -32 -286 -64 -154 -31 -284 -61 -289 -65 -4 -4 9 -55 29 -113 l38 -107 126 7 c155 8 1035 11 1261 4 l165 -5 38 104 c21 57 34 107 30 111 -4 4 -134 33 -288 64 -154 32 -283 61 -287 64 -5 6 -23 266 -59 872 -6 96 -13 515 -16 930 -4 664 -3 753 10 740 8 -8 79 -98 157 -200 79 -102 311 -392 515 -645 706 -874 1005 -1265 1454 -1902 l142 -203 201 0 201 0 -6 208 c-23 735 -17 1931 13 2622 21 473 34 720 39 729 3 5 114 34 246 66 132 31 245 58 252 60 8 3 0 37 -26 112 l-39 108 -199 -5 c-301 -8 -753 -6 -994 4 l-217 8 -32 -102 c-17 -56 -29 -107 -27 -114 3 -6 115 -38 250 -70 l245 -59 6 -56 c9 -84 44 -665 56 -916 13 -294 33 -1068 28 -1127 l-3 -47 -95 122 c-52 67 -241 307 -420 532 -710 893 -995 1273 -1284 1711 l-79 119 -682 0 -682 0 -27 -90z"
       id="path8"
       style="fill:#fefff5;fill-opacity:1" />
    <path
       d="M9020 25148 c-25 -5 -67 -13 -95 -19 -833 -168 -1547 -766 -1860 -1559 -75 -190 -137 -422 -147 -545 l-3 -40 1085 0 1085 0 3 1065 c1 586 0 1075 -3 1088 -3 12 -9 21 -13 21 -4 -1 -27 -6 -52 -11z"
       id="path9"
       style="fill:#fefff5;fill-opacity:1" />
    <path
       d="M9815 25148 c-3 -7 -4 -497 -3 -1088 l3 -1075 1080 0 1080 0 -3 40 c-1 22 -7 58 -12 80 -5 22 -14 63 -20 90 -179 789 -740 1462 -1482 1779 -193 82 -385 139 -557 166 -35 6 -67 13 -72 16 -5 3 -11 -1 -14 -8z"
       id="path10"
       style="fill:#fefff5;fill-opacity:1" />
    <path
       d="M6917 22254 c-17 -18 46 -295 108 -474 272 -779 912 -1390 1693 -1614 184 -52 330 -83 355 -73 16 6 17 87 15 1084 l-3 1078 -1081 3 c-594 1 -1083 -1 -1087 -4z"
       id="path11"
       style="fill:#fefff5;fill-opacity:1" />
    <path
       d="M9817 22253 c-4 -3 -7 -492 -7 -1085 l0 -1078 23 0 c12 0 54 7 92 15 39 9 90 20 115 25 85 17 255 72 365 116 766 314 1334 969 1524 1759 37 151 40 169 43 210 l3 40 -1076 3 c-591 1 -1079 -1 -1082 -5z"
       id="path12"
       style="fill:#fefff5;fill-opacity:1" />
    <path
       d="M34670 19353 l-105 -55 -46 -151 c-98 -319 -207 -591 -341 -855 -43 -85 -78 -155 -78 -157 0 -1 52 -35 115 -75 l115 -71 49 53 c163 179 358 414 507 613 76 101 245 342 268 382 17 30 -184 238 -321 331 l-59 40 -104 -55z"
       id="path13"
       style="fill:#fefff5;fill-opacity:1" />
    <path
       d="M20415 18604 c-95 -12 -383 -35 -618 -50 l-108 -6 7 -32 c4 -17 12 -49 18 -71 l12 -40 154 -25 155 -25 7 -40 c13 -77 27 -1266 20 -1740 l-7 -480 -140 -38 c-77 -21 -141 -40 -143 -41 -2 -2 11 -32 28 -67 l32 -64 481 2 481 1 32 65 33 65 -143 37 -143 37 -6 226 c-4 124 -7 693 -7 1264 l0 1038 -22 -1 c-13 -1 -68 -7 -123 -15z"
       id="path14"
       style="fill:#fefff5;fill-opacity:1" />
    <path
       d="M21690 17768 c-12 -40 -25 -86 -31 -102 -5 -16 -8 -30 -7 -31 2 -1 110 -33 240 -71 l237 -69 5 -50 c12 -106 26 -966 26 -1510 0 -538 -13 -1228 -25 -1341 l-6 -50 -239 -58 -239 -57 20 -52 c12 -29 30 -76 42 -106 l21 -53 130 7 c162 9 1376 9 1449 0 l54 -7 37 103 c22 62 33 105 27 109 -6 3 -114 30 -241 60 l-230 54 2 615 3 615 50 -2 c127 -6 93 33 345 -395 250 -426 503 -862 600 -1037 l64 -115 617 0 617 0 42 99 c24 58 37 101 32 105 -6 3 -116 30 -246 60 l-235 55 -98 120 c-132 162 -331 421 -455 591 -124 170 -388 560 -388 573 0 5 19 15 42 22 65 19 193 85 283 145 393 264 583 794 436 1218 -108 312 -376 519 -773 599 -126 25 -247 27 -1308 17 -267 -2 -574 0 -682 4 l-197 9 -21 -74z m1753 -244 c90 -23 169 -67 239 -133 75 -70 117 -138 154 -246 24 -71 28 -98 32 -246 8 -315 -36 -489 -169 -662 -87 -115 -113 -134 -204 -147 -108 -16 -287 -14 -419 4 -60 9 -111 16 -113 16 -2 0 -2 311 -1 692 l3 692 30 8 c138 38 346 49 448 22z"
       id="path15"
       style="fill:#fefff5;fill-opacity:1" />
    <path
       d="M25554 17738 c-21 -69 -27 -105 -20 -109 6 -3 118 -37 249 -74 l237 -68 1 -166 c0 -91 4 -510 9 -931 10 -888 19 -1040 75 -1277 64 -267 196 -480 392 -627 199 -150 421 -229 778 -277 135 -18 191 -20 355 -16 296 8 484 53 725 172 112 55 213 122 304 200 74 64 197 240 255 367 98 210 109 310 166 1443 39 777 60 1128 68 1137 4 4 109 31 235 61 125 30 230 57 233 60 6 5 -49 169 -65 195 -6 10 -73 10 -327 1 -295 -10 -726 -7 -934 7 l-85 6 -37 -105 c-33 -94 -35 -107 -20 -111 9 -2 118 -28 242 -56 124 -29 227 -54 229 -56 11 -10 31 -436 42 -864 14 -592 2 -1142 -31 -1328 -47 -269 -158 -475 -314 -587 -155 -110 -321 -162 -551 -172 -479 -19 -766 200 -870 666 -47 209 -69 776 -63 1623 2 345 7 630 9 632 2 3 112 36 243 75 130 38 239 71 241 73 2 2 -10 50 -27 106 l-32 102 -265 -7 c-341 -10 -770 -10 -1131 0 l-285 8 -31 -103z"
       id="path16"
       style="fill:#fefff5;fill-opacity:1" />
    <path
       d="M29957 17833 c-3 -5 -17 -52 -30 -106 l-25 -97 42 -11 c189 -50 431 -120 437 -126 14 -16 29 -610 29 -1194 0 -566 -16 -1690 -25 -1735 -3 -12 -15 -24 -27 -27 -13 -3 -120 -28 -240 -57 l-216 -51 35 -106 35 -105 152 9 c83 4 387 6 676 3 995 -9 1177 -7 1325 19 658 114 1026 522 975 1082 -21 232 -90 390 -234 535 -143 143 -301 223 -611 307 l-50 13 65 34 c107 54 180 108 271 200 216 216 288 475 218 779 -74 323 -304 537 -658 614 -108 24 -185 25 -1286 16 -313 -2 -634 0 -712 4 -77 5 -143 4 -146 0z m1658 -328 c139 -36 223 -107 292 -245 66 -132 78 -190 77 -365 -1 -136 -3 -158 -28 -235 -38 -115 -79 -183 -152 -258 -93 -94 -105 -97 -325 -96 -103 1 -208 5 -234 8 -42 7 -46 10 -41 29 3 12 6 271 6 575 l0 552 28 11 c99 39 277 50 377 24z m-17 -1525 c110 -12 231 -50 312 -97 83 -48 226 -190 269 -267 69 -123 111 -275 111 -401 0 -182 -80 -384 -200 -504 -107 -107 -312 -201 -437 -201 -77 0 -236 24 -349 51 l-91 22 -6 180 c-4 99 -7 411 -7 693 l0 514 23 5 c60 14 276 17 375 5z"
       id="path17"
       style="fill:#fefff5;fill-opacity:1" />
    <path
       d="M33615 17828 c-27 -71 -64 -192 -61 -196 3 -2 113 -33 247 -68 133 -35 244 -66 247 -69 9 -9 20 -433 28 -1045 6 -535 -6 -1565 -22 -1816 l-6 -91 -240 -54 c-132 -30 -244 -56 -249 -60 -5 -3 6 -50 24 -105 l34 -99 79 1 c110 2 1442 2 1533 0 l73 -1 35 98 c20 54 33 100 30 104 -3 3 -110 29 -236 58 -127 29 -238 55 -246 59 -13 5 -15 178 -15 1481 0 811 3 1475 8 1475 15 1 483 128 488 133 3 3 -9 51 -27 106 l-33 101 -271 -7 c-343 -10 -950 -10 -1213 0 -159 6 -204 5 -207 -5z"
       id="path18"
       style="fill:#fefff5;fill-opacity:1" />
    <path
       d="M18815 17480 c-231 -25 -432 -147 -562 -344 -161 -241 -166 -660 -12 -923 19 -32 70 -94 115 -139 134 -133 299 -201 514 -211 245 -11 515 77 688 225 l43 37 -37 80 c-21 44 -39 82 -40 83 -1 2 -32 -13 -67 -32 -36 -20 -103 -51 -149 -68 -76 -29 -93 -32 -208 -32 -121 -1 -127 0 -193 31 -85 40 -174 124 -216 203 -36 67 -68 181 -73 261 l-3 54 330 6 c295 6 496 18 607 36 38 5 38 6 38 52 0 71 -26 204 -53 271 -98 243 -283 379 -552 410 -49 5 -92 9 -95 9 -3 -1 -36 -5 -75 -9z m122 -250 c34 -17 76 -47 94 -67 38 -44 84 -142 93 -199 l6 -41 -51 -6 c-101 -12 -437 -30 -452 -24 -13 5 -13 14 -2 74 23 116 62 206 117 269 31 35 34 36 82 30 28 -3 79 -19 113 -36z"
       id="path19"
       style="fill:#fefff5;fill-opacity:1" />
  </g>
</svg>
